<svg width="362" height="72" viewBox="0 0 362 72" fill="none" xmlns="http://www.w3.org/2000/svg">
<path d="M15.4998 62.9998L1.59177e-05 72L1.59177e-05 54L15.4998 62.9998Z" fill="#0099EE"/>
<path d="M15.4998 44.9998L1.59177e-05 54L1.59177e-05 36L15.4998 44.9998Z" fill="#0099EE"/>
<path d="M15.4998 26.9998L1.59177e-05 36L1.59177e-05 18L15.4998 26.9998Z" fill="#0099EE"/>
<path d="M0 18.0003L15.4998 9.00013L15.4998 27.0001L0 18.0003Z" fill="#0099EE"/>
<path d="M15.4998 9.00017L30.9997 -7.97212e-07V18L15.4998 9.00017Z" fill="#0099EE"/>
<path d="M46.4998 8.99983L31 18V0L46.4998 8.99983Z" fill="#0099EE"/>
<path d="M62 18L46.5002 27.0001V9.00012L62 18Z" fill="#0099EE"/>
<path d="M31 18.0003L46.4998 9.00013V27.0001L31 18.0003Z" fill="#0099EE"/>
<path d="M46.5002 27.0002L62 18V36L46.5002 27.0002Z" fill="#0099EE"/>
<path d="M31 36.0003L46.4998 27.0001V45.0001L31 36.0003Z" fill="#0099EE"/>
<path d="M62 36L46.5002 45.0001V27.0001L62 36Z" fill="#0099EE"/>
<path d="M46.5002 44.9998L31.0004 54V36L46.5002 44.9998Z" fill="#0099EE"/>
<path d="M62 54L46.5002 63.0001V45.0001L62 54Z" fill="#0099EE"/>
<path d="M31 54.0003L46.4998 45.0001V63.0001L31 54.0003Z" fill="#0099EE"/>
<path d="M46.5002 63.0002L62 54V72L46.5002 63.0002Z" fill="#0099EE"/>
<path d="M31 18L15.5002 27.0001L15.5002 9.00012L31 18Z" fill="#0099EE"/>
<path d="M0 54.0003L15.4998 45.0001L15.4998 63.0001L0 54.0003Z" fill="#0099EE"/>
<path d="M0 36.0003L15.4998 27.0001L15.4998 45.0001L0 36.0003Z" fill="#0099EE"/>
<path d="M15.4998 62.9998L1.59177e-05 72L1.59177e-05 54L15.4998 62.9998Z" fill="#0099EE"/>
<path d="M15.4998 44.9998L1.59177e-05 54L1.59177e-05 36L15.4998 44.9998Z" fill="#0099EE"/>
<path d="M15.4998 26.9998L1.59177e-05 36L1.59177e-05 18L15.4998 26.9998Z" fill="#0099EE"/>
<path d="M0 18.0003L15.4998 9.00013L15.4998 27.0001L0 18.0003Z" fill="#0099EE"/>
<path d="M15.4998 9.00017L30.9997 -7.97212e-07V18L15.4998 9.00017Z" fill="#0099EE"/>
<path d="M46.4998 8.99983L31 18V0L46.4998 8.99983Z" fill="#0099EE"/>
<path d="M62 18L46.5002 27.0001V9.00012L62 18Z" fill="#0099EE"/>
<path d="M31 18.0003L46.4998 9.00013V27.0001L31 18.0003Z" fill="#0099EE"/>
<path d="M46.5002 27.0002L62 18V36L46.5002 27.0002Z" fill="#0099EE"/>
<path d="M31 36.0003L46.4998 27.0001V45.0001L31 36.0003Z" fill="#0099EE"/>
<path d="M62 36L46.5002 45.0001V27.0001L62 36Z" fill="#0099EE"/>
<path d="M46.5002 44.9998L31.0004 54V36L46.5002 44.9998Z" fill="#0099EE"/>
<path d="M62 54L46.5002 63.0001V45.0001L62 54Z" fill="#0099EE"/>
<path d="M31 54.0003L46.4998 45.0001V63.0001L31 54.0003Z" fill="#0099EE"/>
<path d="M46.5002 63.0002L62 54V72L46.5002 63.0002Z" fill="#0099EE"/>
<path d="M31 18L15.5002 27.0001L15.5002 9.00012L31 18Z" fill="#0099EE"/>
<path d="M0 54.0003L15.4998 45.0001L15.4998 63.0001L0 54.0003Z" fill="#0099EE"/>
<path d="M0 36.0003L15.4998 27.0001L15.4998 45.0001L0 36.0003Z" fill="#0099EE"/>
<path d="M15.4998 62.9998L1.59177e-05 72L1.59177e-05 54L15.4998 62.9998Z" fill="#0099EE"/>
<path d="M15.4998 44.9998L1.59177e-05 54L1.59177e-05 36L15.4998 44.9998Z" fill="#0099EE"/>
<path d="M15.4998 26.9998L1.59177e-05 36L1.59177e-05 18L15.4998 26.9998Z" fill="#0088CC"/>
<path d="M0 18.0003L15.4998 9.00013L15.4998 27.0001L0 18.0003Z" fill="#0088CC"/>
<path d="M15.4998 9.00017L30.9997 -7.97212e-07V18L15.4998 9.00017Z" fill="#0088CC"/>
<path d="M46.4998 8.99983L31 18V0L46.4998 8.99983Z" fill="#0099EE"/>
<path d="M62 18L46.5002 27.0001V9.00012L62 18Z" fill="#0099EE"/>
<path d="M31 18.0003L46.4998 9.00013V27.0001L31 18.0003Z" fill="#0099EE"/>
<path d="M46.5002 27.0002L62 18V36L46.5002 27.0002Z" fill="#0088CC"/>
<path d="M31 36.0003L46.4998 27.0001V45.0001L31 36.0003Z" fill="#0088CC"/>
<path d="M62 36L46.5002 45.0001V27.0001L62 36Z" fill="#0088CC"/>
<path d="M46.5002 44.9998L31.0004 54V36L46.5002 44.9998Z" fill="#0099EE"/>
<path d="M62 54L46.5002 63.0001V45.0001L62 54Z" fill="#0099EE"/>
<path d="M31 54.0003L46.4998 45.0001V63.0001L31 54.0003Z" fill="#0099EE"/>
<path d="M46.5002 63.0002L62 54V72L46.5002 63.0002Z" fill="#0099EE"/>
<path d="M31 18L15.5002 27.0001L15.5002 9.00012L31 18Z" fill="#0088CC"/>
<path d="M0 54.0003L15.4998 45.0001L15.4998 63.0001L0 54.0003Z" fill="#0099EE"/>
<path d="M0 36.0003L15.4998 27.0001L15.4998 45.0001L0 36.0003Z" fill="#0099EE"/>
<path d="M84.916 41V14.576H95.176C95.968 14.576 96.76 14.672 97.552 14.864C98.344 15.032 99.064 15.38 99.712 15.908C100.36 16.412 100.876 17.168 101.26 18.176C101.644 19.184 101.836 20.504 101.836 22.136C101.836 23.624 101.668 24.848 101.332 25.808C100.996 26.744 100.552 27.476 100 28.004C99.472 28.532 98.896 28.916 98.272 29.156C97.672 29.396 97.096 29.552 96.544 29.624L102.088 41H100L94.564 29.84C94.012 29.84 93.268 29.84 92.332 29.84C91.396 29.816 90.448 29.792 89.488 29.768C88.528 29.744 87.7 29.72 87.004 29.696V41H84.916ZM87.004 28.112H94.924C95.764 28.112 96.556 27.968 97.3 27.68C98.044 27.392 98.632 26.828 99.064 25.988C99.52 25.124 99.748 23.84 99.748 22.136C99.748 20.504 99.52 19.292 99.064 18.5C98.608 17.684 98.008 17.144 97.264 16.88C96.52 16.592 95.74 16.448 94.924 16.448H87.004V28.112ZM109.893 41.216C108.501 41.216 107.337 40.808 106.401 39.992C105.489 39.152 105.033 37.964 105.033 36.428V35.132C105.033 33.62 105.525 32.396 106.509 31.46C107.517 30.524 108.993 30.056 110.937 30.056H117.957V27.392C117.957 26.528 117.813 25.784 117.525 25.16C117.237 24.536 116.709 24.056 115.941 23.72C115.197 23.384 114.129 23.216 112.737 23.216H106.725V21.956C107.517 21.836 108.453 21.74 109.533 21.668C110.637 21.572 111.897 21.512 113.313 21.488C115.665 21.488 117.369 21.956 118.425 22.892C119.505 23.828 120.045 25.292 120.045 27.284V41H118.461L118.029 38.768C117.957 38.816 117.657 38.972 117.129 39.236C116.625 39.476 115.965 39.752 115.149 40.064C114.333 40.376 113.457 40.652 112.521 40.892C111.609 41.108 110.733 41.216 109.893 41.216ZM110.613 39.56C111.213 39.584 111.921 39.512 112.737 39.344C113.577 39.152 114.381 38.936 115.149 38.696C115.941 38.432 116.601 38.204 117.129 38.012C117.657 37.82 117.933 37.712 117.957 37.688V31.172L111.261 31.424C109.749 31.496 108.681 31.88 108.057 32.576C107.433 33.248 107.121 34.112 107.121 35.168V36.068C107.121 36.932 107.301 37.628 107.661 38.156C108.021 38.66 108.465 39.02 108.993 39.236C109.521 39.452 110.061 39.56 110.613 39.56ZM126.776 41V23.576H123.752V22.208L126.776 21.812V19.328C126.776 18.056 126.92 16.976 127.208 16.088C127.496 15.176 128.024 14.492 128.792 14.036C129.56 13.556 130.628 13.316 131.996 13.316C132.836 13.316 133.52 13.352 134.048 13.424C134.6 13.472 135.116 13.532 135.596 13.604V15.08H132.32C130.856 15.08 129.908 15.44 129.476 16.16C129.068 16.856 128.864 17.888 128.864 19.256V21.812H135.128V23.576H128.864V41H126.776ZM142.412 41.216C141.02 41.216 139.856 40.808 138.92 39.992C138.008 39.152 137.552 37.964 137.552 36.428V35.132C137.552 33.62 138.044 32.396 139.028 31.46C140.036 30.524 141.512 30.056 143.456 30.056H150.476V27.392C150.476 26.528 150.332 25.784 150.044 25.16C149.756 24.536 149.228 24.056 148.46 23.72C147.716 23.384 146.648 23.216 145.256 23.216H139.244V21.956C140.036 21.836 140.972 21.74 142.052 21.668C143.156 21.572 144.416 21.512 145.832 21.488C148.184 21.488 149.888 21.956 150.944 22.892C152.024 23.828 152.564 25.292 152.564 27.284V41H150.98L150.548 38.768C150.476 38.816 150.176 38.972 149.648 39.236C149.144 39.476 148.484 39.752 147.668 40.064C146.852 40.376 145.976 40.652 145.04 40.892C144.128 41.108 143.252 41.216 142.412 41.216ZM143.132 39.56C143.732 39.584 144.44 39.512 145.256 39.344C146.096 39.152 146.9 38.936 147.668 38.696C148.46 38.432 149.12 38.204 149.648 38.012C150.176 37.82 150.452 37.712 150.476 37.688V31.172L143.78 31.424C142.268 31.496 141.2 31.88 140.576 32.576C139.952 33.248 139.64 34.112 139.64 35.168V36.068C139.64 36.932 139.82 37.628 140.18 38.156C140.54 38.66 140.984 39.02 141.512 39.236C142.04 39.452 142.58 39.56 143.132 39.56ZM165.415 41.216C163.447 41.216 161.887 40.916 160.735 40.316C159.607 39.692 158.803 38.672 158.323 37.256C157.843 35.816 157.603 33.848 157.603 31.352C157.603 28.832 157.855 26.864 158.359 25.448C158.863 24.032 159.691 23.036 160.843 22.46C162.019 21.884 163.579 21.596 165.523 21.596C167.947 21.596 169.735 22.04 170.887 22.928C172.063 23.816 172.651 25.46 172.651 27.86C172.651 29.468 172.183 30.62 171.247 31.316C170.311 31.988 169.027 32.324 167.395 32.324H159.691C159.691 34.076 159.859 35.48 160.195 36.536C160.531 37.592 161.143 38.36 162.031 38.84C162.919 39.32 164.203 39.56 165.883 39.56H172.219V40.82C171.091 40.94 170.011 41.036 168.979 41.108C167.947 41.18 166.759 41.216 165.415 41.216ZM159.655 30.848H167.251C168.427 30.848 169.303 30.644 169.879 30.236C170.455 29.804 170.743 29.012 170.743 27.86C170.743 26.06 170.347 24.836 169.555 24.188C168.763 23.54 167.419 23.216 165.523 23.216C164.011 23.216 162.823 23.432 161.959 23.864C161.119 24.296 160.519 25.076 160.159 26.204C159.823 27.308 159.655 28.856 159.655 30.848ZM182.551 41.036C181.039 41.036 179.875 40.604 179.059 39.74C178.243 38.852 177.835 37.232 177.835 34.88V13.532H179.923V34.664C179.923 35.912 180.031 36.86 180.247 37.508C180.487 38.132 180.823 38.576 181.255 38.84C181.687 39.08 182.203 39.236 182.803 39.308L184.891 39.56V41.036H182.551ZM205.429 41.216C204.949 41.216 204.349 41.204 203.629 41.18C202.909 41.156 202.153 41.108 201.361 41.036C200.593 40.988 199.861 40.928 199.165 40.856C198.493 40.784 197.941 40.712 197.509 40.64V39.056C198.325 39.128 199.465 39.2 200.929 39.272C202.393 39.32 203.869 39.344 205.357 39.344C206.485 39.344 207.517 39.236 208.453 39.02C209.389 38.78 210.133 38.348 210.685 37.724C211.237 37.076 211.513 36.14 211.513 34.916V32.9C211.513 31.556 211.177 30.524 210.505 29.804C209.833 29.084 208.729 28.724 207.193 28.724H204.133C202.069 28.724 200.437 28.28 199.237 27.392C198.061 26.48 197.473 24.884 197.473 22.604V21.056C197.473 18.584 198.109 16.856 199.381 15.872C200.677 14.864 202.501 14.36 204.853 14.36C205.549 14.36 206.377 14.396 207.337 14.468C208.297 14.54 209.233 14.624 210.145 14.72C211.057 14.816 211.789 14.912 212.341 15.008V16.592C211.285 16.52 210.097 16.448 208.777 16.376C207.481 16.28 206.233 16.232 205.033 16.232C203.881 16.232 202.885 16.376 202.045 16.664C201.229 16.928 200.593 17.42 200.137 18.14C199.705 18.836 199.489 19.832 199.489 21.128V22.532C199.489 24.14 199.897 25.244 200.713 25.844C201.553 26.42 202.705 26.708 204.169 26.708H207.373C209.485 26.708 211.033 27.272 212.017 28.4C213.025 29.528 213.529 30.956 213.529 32.684V34.88C213.529 36.584 213.157 37.892 212.413 38.804C211.669 39.716 210.673 40.352 209.425 40.712C208.201 41.048 206.869 41.216 205.429 41.216ZM219.152 18.212C218.792 18.212 218.612 18.032 218.612 17.672V15.116C218.612 14.756 218.792 14.576 219.152 14.576H220.556C220.868 14.576 221.024 14.756 221.024 15.116V17.672C221.024 18.032 220.868 18.212 220.556 18.212H219.152ZM218.792 41V21.812H220.88V41H218.792ZM226.737 41V21.812H228.285L228.825 23.972C229.809 23.324 230.925 22.748 232.173 22.244C233.421 21.74 234.777 21.488 236.241 21.488C237.441 21.488 238.461 21.764 239.301 22.316C240.165 22.868 240.825 23.564 241.281 24.404C241.881 23.948 242.637 23.504 243.549 23.072C244.461 22.616 245.421 22.244 246.429 21.956C247.437 21.644 248.397 21.488 249.309 21.488C250.653 21.488 251.769 21.788 252.657 22.388C253.545 22.964 254.205 23.744 254.637 24.728C255.093 25.688 255.321 26.744 255.321 27.896V41H253.233V28.04C253.233 26.72 252.837 25.616 252.045 24.728C251.253 23.84 250.161 23.396 248.769 23.396C247.593 23.396 246.369 23.624 245.097 24.08C243.849 24.512 242.685 25.052 241.605 25.7C241.749 26.06 241.857 26.444 241.929 26.852C242.025 27.236 242.073 27.632 242.073 28.04V41H239.985V28.04C239.985 26.72 239.589 25.616 238.797 24.728C238.029 23.84 236.949 23.396 235.557 23.396C234.189 23.396 233.001 23.576 231.993 23.936C231.009 24.296 229.953 24.788 228.825 25.412V41H226.737ZM261.445 18.212C261.085 18.212 260.905 18.032 260.905 17.672V15.116C260.905 14.756 261.085 14.576 261.445 14.576H262.849C263.161 14.576 263.317 14.756 263.317 15.116V17.672C263.317 18.032 263.161 18.212 262.849 18.212H261.445ZM261.085 41V21.812H263.173V41H261.085ZM276.446 41.216C274.67 41.216 273.17 40.964 271.946 40.46C270.746 39.932 269.834 38.96 269.21 37.544C268.61 36.128 268.31 34.076 268.31 31.388C268.31 29.348 268.478 27.692 268.814 26.42C269.174 25.124 269.69 24.128 270.362 23.432C271.058 22.736 271.91 22.256 272.918 21.992C273.926 21.728 275.102 21.596 276.446 21.596C277.766 21.596 278.93 21.728 279.938 21.992C280.97 22.256 281.834 22.736 282.53 23.432C283.226 24.128 283.742 25.124 284.078 26.42C284.438 27.692 284.618 29.348 284.618 31.388C284.618 33.428 284.438 35.096 284.078 36.392C283.742 37.664 283.226 38.648 282.53 39.344C281.858 40.04 281.006 40.532 279.974 40.82C278.966 41.084 277.79 41.216 276.446 41.216ZM276.446 39.452C277.406 39.452 278.258 39.368 279.002 39.2C279.77 39.008 280.418 38.648 280.946 38.12C281.474 37.568 281.87 36.752 282.134 35.672C282.398 34.592 282.53 33.164 282.53 31.388C282.53 29.588 282.398 28.16 282.134 27.104C281.87 26.024 281.474 25.22 280.946 24.692C280.418 24.14 279.77 23.78 279.002 23.612C278.258 23.42 277.406 23.324 276.446 23.324C275.462 23.324 274.598 23.42 273.854 23.612C273.11 23.78 272.474 24.14 271.946 24.692C271.442 25.22 271.058 26.024 270.794 27.104C270.53 28.16 270.398 29.588 270.398 31.388C270.398 33.164 270.53 34.592 270.794 35.672C271.058 36.752 271.442 37.568 271.946 38.12C272.474 38.648 273.11 39.008 273.854 39.2C274.598 39.368 275.462 39.452 276.446 39.452ZM289.807 41V21.812H291.355L291.895 23.972C292.831 23.324 293.935 22.748 295.207 22.244C296.503 21.74 297.835 21.488 299.203 21.488C300.547 21.488 301.651 21.788 302.515 22.388C303.403 22.988 304.063 23.768 304.495 24.728C304.927 25.688 305.143 26.72 305.143 27.824V41H303.055V28.04C303.055 26.72 302.659 25.616 301.867 24.728C301.099 23.84 300.019 23.396 298.627 23.396C297.259 23.396 296.071 23.576 295.063 23.936C294.079 24.296 293.023 24.788 291.895 25.412V41H289.807ZM314.537 41.216C313.145 41.216 311.981 40.808 311.045 39.992C310.133 39.152 309.677 37.964 309.677 36.428V35.132C309.677 33.62 310.169 32.396 311.153 31.46C312.161 30.524 313.637 30.056 315.581 30.056H322.601V27.392C322.601 26.528 322.457 25.784 322.169 25.16C321.881 24.536 321.353 24.056 320.585 23.72C319.841 23.384 318.773 23.216 317.381 23.216H311.369V21.956C312.161 21.836 313.097 21.74 314.177 21.668C315.281 21.572 316.541 21.512 317.957 21.488C320.309 21.488 322.013 21.956 323.069 22.892C324.149 23.828 324.689 25.292 324.689 27.284V41H323.105L322.673 38.768C322.601 38.816 322.301 38.972 321.773 39.236C321.269 39.476 320.609 39.752 319.793 40.064C318.977 40.376 318.101 40.652 317.165 40.892C316.253 41.108 315.377 41.216 314.537 41.216ZM315.257 39.56C315.857 39.584 316.565 39.512 317.381 39.344C318.221 39.152 319.025 38.936 319.793 38.696C320.585 38.432 321.245 38.204 321.773 38.012C322.301 37.82 322.577 37.712 322.601 37.688V31.172L315.905 31.424C314.393 31.496 313.325 31.88 312.701 32.576C312.077 33.248 311.765 34.112 311.765 35.168V36.068C311.765 36.932 311.945 37.628 312.305 38.156C312.665 38.66 313.109 39.02 313.637 39.236C314.165 39.452 314.705 39.56 315.257 39.56ZM336.496 41C334.768 41 333.46 40.544 332.572 39.632C331.684 38.696 331.252 37.148 331.276 34.988L331.384 23.576H328.324V22.208L331.384 21.812L331.78 16.448H333.364V21.812H339.196V23.576H333.364V34.988C333.364 36.212 333.532 37.124 333.868 37.724C334.228 38.324 334.66 38.72 335.164 38.912C335.668 39.104 336.136 39.224 336.568 39.272L338.908 39.488V41H336.496ZM350.872 41.216C349.096 41.216 347.596 40.964 346.372 40.46C345.172 39.932 344.26 38.96 343.636 37.544C343.036 36.128 342.736 34.076 342.736 31.388C342.736 29.348 342.904 27.692 343.24 26.42C343.6 25.124 344.116 24.128 344.788 23.432C345.484 22.736 346.336 22.256 347.344 21.992C348.352 21.728 349.528 21.596 350.872 21.596C352.192 21.596 353.356 21.728 354.364 21.992C355.396 22.256 356.26 22.736 356.956 23.432C357.652 24.128 358.168 25.124 358.504 26.42C358.864 27.692 359.044 29.348 359.044 31.388C359.044 33.428 358.864 35.096 358.504 36.392C358.168 37.664 357.652 38.648 356.956 39.344C356.284 40.04 355.432 40.532 354.4 40.82C353.392 41.084 352.216 41.216 350.872 41.216ZM350.872 39.452C351.832 39.452 352.684 39.368 353.428 39.2C354.196 39.008 354.844 38.648 355.372 38.12C355.9 37.568 356.296 36.752 356.56 35.672C356.824 34.592 356.956 33.164 356.956 31.388C356.956 29.588 356.824 28.16 356.56 27.104C356.296 26.024 355.9 25.22 355.372 24.692C354.844 24.14 354.196 23.78 353.428 23.612C352.684 23.42 351.832 23.324 350.872 23.324C349.888 23.324 349.024 23.42 348.28 23.612C347.536 23.78 346.9 24.14 346.372 24.692C345.868 25.22 345.484 26.024 345.22 27.104C344.956 28.16 344.824 29.588 344.824 31.388C344.824 33.164 344.956 34.592 345.22 35.672C345.484 36.752 345.868 37.568 346.372 38.12C346.9 38.648 347.536 39.008 348.28 39.2C349.024 39.368 349.888 39.452 350.872 39.452Z" fill="black"/>
<path d="M158.158 61.108C157.294 61.108 156.616 60.826 156.124 60.262C155.644 59.686 155.404 58.87 155.404 57.814C155.404 57.154 155.47 56.476 155.602 55.78C155.782 54.856 156.034 54.058 156.358 53.386C156.694 52.702 157.18 52.174 157.816 51.802C158.452 51.43 159.328 51.244 160.444 51.244C160.828 51.244 161.188 51.274 161.524 51.334C161.86 51.382 162.184 51.466 162.496 51.586L163.162 47.266H165.394L163.216 61H161.254L161.146 60.01C160.774 60.298 160.324 60.556 159.796 60.784C159.268 61 158.722 61.108 158.158 61.108ZM159.094 59.308C159.55 59.308 159.958 59.236 160.318 59.092C160.69 58.936 161.044 58.756 161.38 58.552L162.19 53.422C161.974 53.302 161.734 53.212 161.47 53.152C161.206 53.08 160.894 53.044 160.534 53.044C160.006 53.044 159.562 53.14 159.202 53.332C158.842 53.524 158.548 53.848 158.32 54.304C158.092 54.748 157.906 55.372 157.762 56.176C157.714 56.416 157.678 56.638 157.654 56.842C157.642 57.046 157.636 57.244 157.636 57.436C157.636 58.132 157.78 58.618 158.068 58.894C158.356 59.17 158.698 59.308 159.094 59.308ZM169.575 61.108C168.183 61.108 167.193 60.808 166.605 60.208C166.017 59.596 165.723 58.72 165.723 57.58C165.723 57.244 165.741 56.92 165.777 56.608C165.813 56.284 165.855 55.972 165.903 55.672C166.143 54.148 166.671 53.026 167.487 52.306C168.315 51.586 169.449 51.226 170.889 51.226C171.537 51.226 172.131 51.304 172.671 51.46C173.223 51.616 173.661 51.898 173.985 52.306C174.321 52.702 174.489 53.272 174.489 54.016C174.489 54.676 174.375 55.222 174.147 55.654C173.919 56.074 173.601 56.398 173.193 56.626C172.797 56.854 172.341 57.016 171.825 57.112C171.309 57.196 170.769 57.238 170.205 57.238C169.713 57.238 169.269 57.22 168.873 57.184C168.489 57.136 168.189 57.082 167.973 57.022C167.937 57.274 167.919 57.544 167.919 57.832C167.919 58.396 168.111 58.81 168.495 59.074C168.891 59.326 169.539 59.452 170.439 59.452H173.463L173.247 60.766C172.803 60.85 172.257 60.928 171.609 61C170.973 61.072 170.295 61.108 169.575 61.108ZM169.593 55.96C170.517 55.96 171.219 55.834 171.699 55.582C172.179 55.33 172.419 54.886 172.419 54.25C172.419 53.374 171.861 52.936 170.745 52.936C169.917 52.936 169.305 53.188 168.909 53.692C168.525 54.184 168.261 54.898 168.117 55.834C168.321 55.87 168.549 55.9 168.801 55.924C169.065 55.948 169.329 55.96 169.593 55.96ZM179.004 61.108C178.296 61.108 177.582 61.072 176.862 61C176.142 60.94 175.572 60.85 175.152 60.73L175.35 59.416H179.49C179.898 59.416 180.228 59.35 180.48 59.218C180.732 59.074 180.888 58.84 180.948 58.516L181.02 58.012C181.032 57.964 181.038 57.922 181.038 57.886C181.038 57.85 181.038 57.82 181.038 57.796C181.038 57.328 180.732 57.094 180.12 57.094H178.554C177.762 57.094 177.12 56.95 176.628 56.662C176.148 56.374 175.908 55.906 175.908 55.258C175.908 55.138 175.908 55.012 175.908 54.88C175.92 54.748 175.938 54.604 175.962 54.448L176.088 53.746C176.172 53.254 176.346 52.822 176.61 52.45C176.874 52.078 177.264 51.784 177.78 51.568C178.308 51.352 179.004 51.244 179.868 51.244C180.228 51.244 180.636 51.262 181.092 51.298C181.548 51.334 181.992 51.382 182.424 51.442C182.856 51.49 183.222 51.556 183.522 51.64L183.306 52.954H179.454C179.01 52.954 178.686 53.032 178.482 53.188C178.278 53.332 178.14 53.566 178.068 53.89L178.014 54.268C177.978 54.484 177.96 54.634 177.96 54.718C177.96 54.922 178.032 55.072 178.176 55.168C178.332 55.252 178.602 55.294 178.986 55.294H180.678C181.41 55.294 181.998 55.462 182.442 55.798C182.898 56.122 183.126 56.584 183.126 57.184C183.126 57.292 183.12 57.406 183.108 57.526C183.108 57.646 183.096 57.766 183.072 57.886L182.946 58.75C182.814 59.614 182.4 60.226 181.704 60.586C181.008 60.934 180.108 61.108 179.004 61.108ZM188.612 61.108C187.22 61.108 186.23 60.808 185.642 60.208C185.054 59.596 184.76 58.72 184.76 57.58C184.76 57.244 184.778 56.92 184.814 56.608C184.85 56.284 184.892 55.972 184.94 55.672C185.18 54.148 185.708 53.026 186.524 52.306C187.352 51.586 188.486 51.226 189.926 51.226C190.574 51.226 191.168 51.304 191.708 51.46C192.26 51.616 192.698 51.898 193.022 52.306C193.358 52.702 193.526 53.272 193.526 54.016C193.526 54.676 193.412 55.222 193.184 55.654C192.956 56.074 192.638 56.398 192.23 56.626C191.834 56.854 191.378 57.016 190.862 57.112C190.346 57.196 189.806 57.238 189.242 57.238C188.75 57.238 188.306 57.22 187.91 57.184C187.526 57.136 187.226 57.082 187.01 57.022C186.974 57.274 186.956 57.544 186.956 57.832C186.956 58.396 187.148 58.81 187.532 59.074C187.928 59.326 188.576 59.452 189.476 59.452H192.5L192.284 60.766C191.84 60.85 191.294 60.928 190.646 61C190.01 61.072 189.332 61.108 188.612 61.108ZM188.63 55.96C189.554 55.96 190.256 55.834 190.736 55.582C191.216 55.33 191.456 54.886 191.456 54.25C191.456 53.374 190.898 52.936 189.782 52.936C188.954 52.936 188.342 53.188 187.946 53.692C187.562 54.184 187.298 54.898 187.154 55.834C187.358 55.87 187.586 55.9 187.838 55.924C188.102 55.948 188.366 55.96 188.63 55.96ZM194.261 61L195.773 51.352H197.609L197.843 52.36C198.299 52.048 198.821 51.784 199.409 51.568C200.009 51.34 200.651 51.226 201.335 51.226C202.163 51.226 202.775 51.436 203.171 51.856C203.579 52.276 203.783 52.804 203.783 53.44C203.783 53.62 203.771 53.836 203.747 54.088C203.735 54.328 203.687 54.736 203.603 55.312L202.685 61H200.471L201.353 55.384C201.389 55.096 201.413 54.886 201.425 54.754C201.449 54.622 201.461 54.514 201.461 54.43C201.461 54.082 201.359 53.794 201.155 53.566C200.951 53.338 200.597 53.224 200.093 53.224C199.613 53.224 199.175 53.302 198.779 53.458C198.383 53.614 197.987 53.83 197.591 54.106L196.493 61H194.261ZM207.149 61L205.295 51.352H207.581L208.787 58.894L211.343 53.836C211.535 53.404 211.691 52.984 211.811 52.576C211.943 52.168 212.033 51.712 212.081 51.208H214.115C214.103 51.832 213.983 52.444 213.755 53.044C213.539 53.644 213.287 54.226 212.999 54.79L209.705 61H207.149ZM218.316 61.108C217.116 61.108 216.198 60.838 215.562 60.298C214.926 59.758 214.608 58.918 214.608 57.778C214.608 57.454 214.62 57.148 214.644 56.86C214.668 56.56 214.704 56.266 214.752 55.978C214.896 55.006 215.1 54.214 215.364 53.602C215.64 52.978 215.976 52.498 216.372 52.162C216.78 51.826 217.272 51.592 217.848 51.46C218.424 51.316 219.096 51.244 219.864 51.244C220.836 51.244 221.586 51.376 222.114 51.64C222.654 51.892 223.026 52.276 223.23 52.792C223.446 53.296 223.554 53.938 223.554 54.718C223.554 55.006 223.542 55.312 223.518 55.636C223.494 55.96 223.452 56.296 223.392 56.644C223.212 57.82 222.918 58.732 222.51 59.38C222.102 60.028 221.556 60.478 220.872 60.73C220.188 60.982 219.336 61.108 218.316 61.108ZM218.568 59.308C219.084 59.308 219.51 59.23 219.846 59.074C220.182 58.918 220.452 58.63 220.656 58.21C220.872 57.778 221.046 57.148 221.178 56.32C221.226 55.972 221.262 55.66 221.286 55.384C221.322 55.108 221.34 54.856 221.34 54.628C221.34 54.028 221.202 53.608 220.926 53.368C220.65 53.128 220.194 53.008 219.558 53.008C219.018 53.008 218.58 53.098 218.244 53.278C217.908 53.446 217.638 53.77 217.434 54.25C217.242 54.718 217.074 55.408 216.93 56.32C216.894 56.584 216.864 56.83 216.84 57.058C216.816 57.274 216.804 57.484 216.804 57.688C216.804 58.336 216.96 58.768 217.272 58.984C217.584 59.2 218.016 59.308 218.568 59.308ZM227.627 61C226.739 61 226.073 60.814 225.629 60.442C225.185 60.058 224.963 59.554 224.963 58.93C224.963 58.69 224.969 58.468 224.981 58.264C224.993 58.048 225.017 57.85 225.053 57.67L226.709 47.266H228.941L227.393 56.95C227.381 57.094 227.351 57.304 227.303 57.58C227.267 57.856 227.249 58.09 227.249 58.282C227.249 58.642 227.333 58.894 227.501 59.038C227.681 59.17 227.927 59.254 228.239 59.29L229.013 59.398L228.743 61H227.627ZM232.496 61L230.642 51.352H232.928L234.134 58.894L236.69 53.836C236.882 53.404 237.038 52.984 237.158 52.576C237.29 52.168 237.38 51.712 237.428 51.208H239.462C239.45 51.832 239.33 52.444 239.102 53.044C238.886 53.644 238.634 54.226 238.346 54.79L235.052 61H232.496ZM243.807 61.108C242.415 61.108 241.425 60.808 240.837 60.208C240.249 59.596 239.955 58.72 239.955 57.58C239.955 57.244 239.973 56.92 240.009 56.608C240.045 56.284 240.087 55.972 240.135 55.672C240.375 54.148 240.903 53.026 241.719 52.306C242.547 51.586 243.681 51.226 245.121 51.226C245.769 51.226 246.363 51.304 246.903 51.46C247.455 51.616 247.893 51.898 248.217 52.306C248.553 52.702 248.721 53.272 248.721 54.016C248.721 54.676 248.607 55.222 248.379 55.654C248.151 56.074 247.833 56.398 247.425 56.626C247.029 56.854 246.573 57.016 246.057 57.112C245.541 57.196 245.001 57.238 244.437 57.238C243.945 57.238 243.501 57.22 243.105 57.184C242.721 57.136 242.421 57.082 242.205 57.022C242.169 57.274 242.151 57.544 242.151 57.832C242.151 58.396 242.343 58.81 242.727 59.074C243.123 59.326 243.771 59.452 244.671 59.452H247.695L247.479 60.766C247.035 60.85 246.489 60.928 245.841 61C245.205 61.072 244.527 61.108 243.807 61.108ZM243.825 55.96C244.749 55.96 245.451 55.834 245.931 55.582C246.411 55.33 246.651 54.886 246.651 54.25C246.651 53.374 246.093 52.936 244.977 52.936C244.149 52.936 243.537 53.188 243.141 53.692C242.757 54.184 242.493 54.898 242.349 55.834C242.553 55.87 242.781 55.9 243.033 55.924C243.297 55.948 243.561 55.96 243.825 55.96ZM252.553 61.108C251.689 61.108 251.011 60.826 250.519 60.262C250.039 59.686 249.799 58.87 249.799 57.814C249.799 57.154 249.865 56.476 249.997 55.78C250.177 54.856 250.429 54.058 250.753 53.386C251.089 52.702 251.575 52.174 252.211 51.802C252.847 51.43 253.723 51.244 254.839 51.244C255.223 51.244 255.583 51.274 255.919 51.334C256.255 51.382 256.579 51.466 256.891 51.586L257.557 47.266H259.789L257.611 61H255.649L255.541 60.01C255.169 60.298 254.719 60.556 254.191 60.784C253.663 61 253.117 61.108 252.553 61.108ZM253.489 59.308C253.945 59.308 254.353 59.236 254.713 59.092C255.085 58.936 255.439 58.756 255.775 58.552L256.585 53.422C256.369 53.302 256.129 53.212 255.865 53.152C255.601 53.08 255.289 53.044 254.929 53.044C254.401 53.044 253.957 53.14 253.597 53.332C253.237 53.524 252.943 53.848 252.715 54.304C252.487 54.748 252.301 55.372 252.157 56.176C252.109 56.416 252.073 56.638 252.049 56.842C252.037 57.046 252.031 57.244 252.031 57.436C252.031 58.132 252.175 58.618 252.463 58.894C252.751 59.17 253.093 59.308 253.489 59.308ZM263.825 61.108C262.625 61.108 261.707 60.838 261.071 60.298C260.435 59.758 260.117 58.918 260.117 57.778C260.117 57.454 260.129 57.148 260.153 56.86C260.177 56.56 260.213 56.266 260.261 55.978C260.405 55.006 260.609 54.214 260.873 53.602C261.149 52.978 261.485 52.498 261.881 52.162C262.289 51.826 262.781 51.592 263.357 51.46C263.933 51.316 264.605 51.244 265.373 51.244C266.345 51.244 267.095 51.376 267.623 51.64C268.163 51.892 268.535 52.276 268.739 52.792C268.955 53.296 269.063 53.938 269.063 54.718C269.063 55.006 269.051 55.312 269.027 55.636C269.003 55.96 268.961 56.296 268.901 56.644C268.721 57.82 268.427 58.732 268.019 59.38C267.611 60.028 267.065 60.478 266.381 60.73C265.697 60.982 264.845 61.108 263.825 61.108ZM264.077 59.308C264.593 59.308 265.019 59.23 265.355 59.074C265.691 58.918 265.961 58.63 266.165 58.21C266.381 57.778 266.555 57.148 266.687 56.32C266.735 55.972 266.771 55.66 266.795 55.384C266.831 55.108 266.849 54.856 266.849 54.628C266.849 54.028 266.711 53.608 266.435 53.368C266.159 53.128 265.703 53.008 265.067 53.008C264.527 53.008 264.089 53.098 263.753 53.278C263.417 53.446 263.147 53.77 262.943 54.25C262.751 54.718 262.583 55.408 262.439 56.32C262.403 56.584 262.373 56.83 262.349 57.058C262.325 57.274 262.313 57.484 262.313 57.688C262.313 58.336 262.469 58.768 262.781 58.984C263.093 59.2 263.525 59.308 264.077 59.308ZM270.041 61L271.571 51.352H273.533L273.605 52.576C273.965 52.216 274.373 51.904 274.829 51.64C275.285 51.376 275.795 51.244 276.359 51.244C276.563 51.244 276.749 51.256 276.917 51.28C277.097 51.292 277.259 51.322 277.403 51.37L277.079 53.584C276.695 53.548 276.299 53.53 275.891 53.53C275.351 53.53 274.865 53.614 274.433 53.782C274.001 53.95 273.635 54.142 273.335 54.358L272.273 61H270.041ZM282.502 61L283.726 53.17H282.34L282.574 51.73L284.014 51.352L284.266 49.912C284.35 49.36 284.506 48.88 284.734 48.472C284.974 48.052 285.316 47.728 285.76 47.5C286.216 47.272 286.816 47.158 287.56 47.158C287.956 47.158 288.346 47.176 288.73 47.212C289.114 47.236 289.444 47.272 289.72 47.32L289.468 48.94H287.938C287.398 48.94 287.02 49.072 286.804 49.336C286.588 49.588 286.444 49.978 286.372 50.506L286.246 51.352H288.802L288.514 53.17H285.958L284.716 61H282.502ZM288.726 61L290.256 51.352H292.218L292.29 52.576C292.65 52.216 293.058 51.904 293.514 51.64C293.97 51.376 294.48 51.244 295.044 51.244C295.248 51.244 295.434 51.256 295.602 51.28C295.782 51.292 295.944 51.322 296.088 51.37L295.764 53.584C295.38 53.548 294.984 53.53 294.576 53.53C294.036 53.53 293.55 53.614 293.118 53.782C292.686 53.95 292.32 54.142 292.02 54.358L290.958 61H288.726ZM300.194 61.108C298.994 61.108 298.076 60.838 297.44 60.298C296.804 59.758 296.486 58.918 296.486 57.778C296.486 57.454 296.498 57.148 296.522 56.86C296.546 56.56 296.582 56.266 296.63 55.978C296.774 55.006 296.978 54.214 297.242 53.602C297.518 52.978 297.854 52.498 298.25 52.162C298.658 51.826 299.15 51.592 299.726 51.46C300.302 51.316 300.974 51.244 301.742 51.244C302.714 51.244 303.464 51.376 303.992 51.64C304.532 51.892 304.904 52.276 305.108 52.792C305.324 53.296 305.432 53.938 305.432 54.718C305.432 55.006 305.42 55.312 305.396 55.636C305.372 55.96 305.33 56.296 305.27 56.644C305.09 57.82 304.796 58.732 304.388 59.38C303.98 60.028 303.434 60.478 302.75 60.73C302.066 60.982 301.214 61.108 300.194 61.108ZM300.446 59.308C300.962 59.308 301.388 59.23 301.724 59.074C302.06 58.918 302.33 58.63 302.534 58.21C302.75 57.778 302.924 57.148 303.056 56.32C303.104 55.972 303.14 55.66 303.164 55.384C303.2 55.108 303.218 54.856 303.218 54.628C303.218 54.028 303.08 53.608 302.804 53.368C302.528 53.128 302.072 53.008 301.436 53.008C300.896 53.008 300.458 53.098 300.122 53.278C299.786 53.446 299.516 53.77 299.312 54.25C299.12 54.718 298.952 55.408 298.808 56.32C298.772 56.584 298.742 56.83 298.718 57.058C298.694 57.274 298.682 57.484 298.682 57.688C298.682 58.336 298.838 58.768 299.15 58.984C299.462 59.2 299.894 59.308 300.446 59.308ZM306.41 61L307.922 51.352H309.758L309.992 52.36C310.448 52.048 310.97 51.784 311.558 51.568C312.158 51.34 312.8 51.226 313.484 51.226C314.312 51.226 314.924 51.436 315.32 51.856C315.728 52.276 315.932 52.804 315.932 53.44C315.932 53.62 315.92 53.836 315.896 54.088C315.884 54.328 315.836 54.736 315.752 55.312L314.834 61H312.62L313.502 55.384C313.538 55.096 313.562 54.886 313.574 54.754C313.598 54.622 313.61 54.514 313.61 54.43C313.61 54.082 313.508 53.794 313.304 53.566C313.1 53.338 312.746 53.224 312.242 53.224C311.762 53.224 311.324 53.302 310.928 53.458C310.532 53.614 310.136 53.83 309.74 54.106L308.642 61H306.41ZM320.845 61C319.021 61 318.109 60.286 318.109 58.858C318.109 58.414 318.163 57.868 318.271 57.22L319.009 53.152H317.479L317.713 51.712L319.351 51.352L320.089 48.652H321.835L321.403 51.352H323.851L323.581 53.152H321.133L320.485 57.238C320.461 57.37 320.431 57.538 320.395 57.742C320.371 57.934 320.359 58.108 320.359 58.264C320.359 58.588 320.437 58.828 320.593 58.984C320.761 59.128 321.025 59.218 321.385 59.254L322.501 59.362L322.231 61H320.845ZM324.164 56.68L324.452 54.88H329.87L329.582 56.68H324.164ZM334.545 61.108C333.153 61.108 332.163 60.808 331.575 60.208C330.987 59.596 330.693 58.72 330.693 57.58C330.693 57.244 330.711 56.92 330.747 56.608C330.783 56.284 330.825 55.972 330.873 55.672C331.113 54.148 331.641 53.026 332.457 52.306C333.285 51.586 334.419 51.226 335.859 51.226C336.507 51.226 337.101 51.304 337.641 51.46C338.193 51.616 338.631 51.898 338.955 52.306C339.291 52.702 339.459 53.272 339.459 54.016C339.459 54.676 339.345 55.222 339.117 55.654C338.889 56.074 338.571 56.398 338.163 56.626C337.767 56.854 337.311 57.016 336.795 57.112C336.279 57.196 335.739 57.238 335.175 57.238C334.683 57.238 334.239 57.22 333.843 57.184C333.459 57.136 333.159 57.082 332.943 57.022C332.907 57.274 332.889 57.544 332.889 57.832C332.889 58.396 333.081 58.81 333.465 59.074C333.861 59.326 334.509 59.452 335.409 59.452H338.433L338.217 60.766C337.773 60.85 337.227 60.928 336.579 61C335.943 61.072 335.265 61.108 334.545 61.108ZM334.563 55.96C335.487 55.96 336.189 55.834 336.669 55.582C337.149 55.33 337.389 54.886 337.389 54.25C337.389 53.374 336.831 52.936 335.715 52.936C334.887 52.936 334.275 53.188 333.879 53.692C333.495 54.184 333.231 54.898 333.087 55.834C333.291 55.87 333.519 55.9 333.771 55.924C334.035 55.948 334.299 55.96 334.563 55.96ZM340.195 61L341.707 51.352H343.543L343.777 52.36C344.233 52.048 344.755 51.784 345.343 51.568C345.943 51.34 346.585 51.226 347.269 51.226C348.097 51.226 348.709 51.436 349.105 51.856C349.513 52.276 349.717 52.804 349.717 53.44C349.717 53.62 349.705 53.836 349.681 54.088C349.669 54.328 349.621 54.736 349.537 55.312L348.619 61H346.405L347.287 55.384C347.323 55.096 347.347 54.886 347.359 54.754C347.383 54.622 347.395 54.514 347.395 54.43C347.395 54.082 347.293 53.794 347.089 53.566C346.885 53.338 346.531 53.224 346.027 53.224C345.547 53.224 345.109 53.302 344.713 53.458C344.317 53.614 343.921 53.83 343.525 54.106L342.427 61H340.195ZM353.82 61.108C352.956 61.108 352.278 60.826 351.786 60.262C351.306 59.686 351.066 58.87 351.066 57.814C351.066 57.154 351.132 56.476 351.264 55.78C351.444 54.856 351.696 54.058 352.02 53.386C352.356 52.702 352.842 52.174 353.478 51.802C354.114 51.43 354.99 51.244 356.106 51.244C356.49 51.244 356.85 51.274 357.186 51.334C357.522 51.382 357.846 51.466 358.158 51.586L358.824 47.266H361.056L358.878 61H356.916L356.808 60.01C356.436 60.298 355.986 60.556 355.458 60.784C354.93 61 354.384 61.108 353.82 61.108ZM354.756 59.308C355.212 59.308 355.62 59.236 355.98 59.092C356.352 58.936 356.706 58.756 357.042 58.552L357.852 53.422C357.636 53.302 357.396 53.212 357.132 53.152C356.868 53.08 356.556 53.044 356.196 53.044C355.668 53.044 355.224 53.14 354.864 53.332C354.504 53.524 354.21 53.848 353.982 54.304C353.754 54.748 353.568 55.372 353.424 56.176C353.376 56.416 353.34 56.638 353.316 56.842C353.304 57.046 353.298 57.244 353.298 57.436C353.298 58.132 353.442 58.618 353.73 58.894C354.018 59.17 354.36 59.308 354.756 59.308Z" fill="black"/>
</svg>
